<svg width="20" height="20" viewBox="0 0 20 20" fill="none" xmlns="http://www.w3.org/2000/svg">
<path d="M2.5 8.33335C2.5 5.19065 2.5 3.61931 3.47631 2.643C4.45262 1.66669 6.02397 1.66669 9.16667 1.66669H10.8333C13.976 1.66669 15.5474 1.66669 16.5237 2.643C17.5 3.61931 17.5 5.19065 17.5 8.33335V11.6667C17.5 14.8094 17.5 16.3808 16.5237 17.357C15.5474 18.3334 13.976 18.3334 10.8333 18.3334H9.16667C6.02397 18.3334 4.45262 18.3334 3.47631 17.357C2.5 16.3808 2.5 14.8094 2.5 11.6667V8.33335Z" stroke="white" stroke-width="1.5"/>
<path d="M10.0001 5V6.66667M10.0001 6.66667V8.33333M10.0001 6.66667H8.33337M10.0001 6.66667H11.6667" stroke="white" stroke-width="1.5" stroke-linecap="round"/>
<path d="M6.66663 11.6667H13.3333" stroke="white" stroke-width="1.5" stroke-linecap="round"/>
<path d="M7.5 15H12.5" stroke="white" stroke-width="1.5" stroke-linecap="round"/>
</svg>
