<svg width="40" height="40" viewBox="0 0 40 40" fill="none" xmlns="http://www.w3.org/2000/svg">
<path d="M25.2179 35.6668C21.8333 35.6668 18.8829 34.5616 16.3669 32.3511C13.8509 30.1407 12.3952 27.357 11.9999 24.0002H13.6858C14.1388 26.8677 15.4449 29.2513 17.6041 31.1508C19.7633 33.0504 22.3012 34.0002 25.2179 34.0002C28.4679 34.0002 31.2248 32.8682 33.4887 30.6043C35.7526 28.3405 36.8846 25.5835 36.8846 22.3335C36.8846 19.0835 35.7526 16.3266 33.4887 14.0627C31.2248 11.7988 28.4679 10.6668 25.2179 10.6668C23.4935 10.6668 21.8728 11.0312 20.3557 11.7598C18.8386 12.4884 17.4999 13.4917 16.3397 14.7694H20.4743V16.4361H13.5512V9.51302H15.2179V13.4938C16.5063 12.0792 18.0165 10.9767 19.7483 10.1861C21.4801 9.39547 23.3033 9.00018 25.2179 9.00018C27.0662 9.00018 28.7985 9.34793 30.415 10.0434C32.0315 10.739 33.4439 11.6909 34.6522 12.8992C35.8605 14.1076 36.8124 15.5199 37.5079 17.1364C38.2035 18.7528 38.5512 20.4852 38.5512 22.3335C38.5512 24.1818 38.2035 25.9142 37.5079 27.5306C36.8124 29.1471 35.8605 30.5595 34.6522 31.7678C33.4439 32.9761 32.0315 33.9281 30.415 34.6236C28.7985 35.3191 27.0662 35.6668 25.2179 35.6668ZM30.5576 28.7566L24.4807 22.6797V14.0002H26.1474V21.9873L31.7371 27.5771L30.5576 28.7566Z" fill="#283172"/>
</svg>
