<svg width="30" height="30" viewBox="0 0 30 30" fill="none" xmlns="http://www.w3.org/2000/svg">
<path d="M14.6058 23.2692H15.8317V21.8029C16.7292 21.7276 17.5889 21.4054 18.4111 20.8365C19.2332 20.2676 19.6442 19.3846 19.6442 18.1875C19.6442 17.3125 19.3782 16.5665 18.8462 15.9495C18.3141 15.3325 17.2981 14.7532 15.7981 14.2115C14.4199 13.7308 13.5393 13.3181 13.1562 12.9736C12.7732 12.629 12.5817 12.1378 12.5817 11.5C12.5817 10.8622 12.8305 10.3309 13.3281 9.90625C13.8257 9.48156 14.4872 9.26922 15.3125 9.26922C15.9471 9.26922 16.476 9.41466 16.899 9.70553C17.3221 9.99641 17.6651 10.3654 17.9279 10.8125L19.0144 10.3846C18.7212 9.78367 18.2913 9.28046 17.7248 8.875C17.1583 8.46954 16.5481 8.24358 15.8942 8.19712V6.73078H14.6683V8.19712C13.5785 8.37821 12.754 8.78446 12.1947 9.41587C11.6354 10.0473 11.3558 10.742 11.3558 11.5C11.3558 12.399 11.6382 13.1186 12.2031 13.6587C12.768 14.1987 13.7211 14.7115 15.0625 15.1971C16.407 15.6923 17.3105 16.1394 17.7728 16.5385C18.2352 16.9375 18.4663 17.4872 18.4663 18.1875C18.4663 19.0673 18.1454 19.7007 17.5036 20.0877C16.8618 20.4748 16.1731 20.6683 15.4375 20.6683C14.718 20.6683 14.0685 20.4587 13.4892 20.0397C12.9099 19.6206 12.4471 19.024 12.101 18.25L11 18.726C11.3558 19.5817 11.8329 20.2488 12.4315 20.7272C13.03 21.2055 13.7548 21.5433 14.6058 21.7404V23.2692ZM15.25 26.25C13.6971 26.25 12.2364 25.9539 10.8678 25.3618C9.4992 24.7696 8.30849 23.9672 7.29566 22.9543C6.28284 21.9415 5.48036 20.7508 4.88822 19.3822C4.29607 18.0136 4 16.5529 4 15C4 13.4471 4.29607 11.9864 4.88822 10.6178C5.48036 9.2492 6.28284 8.05849 7.29566 7.04566C8.30849 6.03284 9.4992 5.23036 10.8678 4.63822C12.2364 4.04607 13.6971 3.75 15.25 3.75C16.8029 3.75 18.2636 4.04607 19.6322 4.63822C21.0008 5.23036 22.1915 6.03284 23.2043 7.04566C24.2172 8.05849 25.0196 9.2492 25.6118 10.6178C26.2039 11.9864 26.5 13.4471 26.5 15C26.5 16.5529 26.2039 18.0136 25.6118 19.3822C25.0196 20.7508 24.2172 21.9415 23.2043 22.9543C22.1915 23.9672 21.0008 24.7696 19.6322 25.3618C18.2636 25.9539 16.8029 26.25 15.25 26.25ZM15.25 25C18.0417 25 20.4062 24.0312 22.3438 22.0938C24.2812 20.1562 25.25 17.7917 25.25 15C25.25 12.2083 24.2812 9.84375 22.3438 7.90625C20.4062 5.96875 18.0417 5 15.25 5C12.4583 5 10.0938 5.96875 8.15625 7.90625C6.21875 9.84375 5.25 12.2083 5.25 15C5.25 17.7917 6.21875 20.1562 8.15625 22.0938C10.0938 24.0312 12.4583 25 15.25 25Z" fill="#283172"/>
</svg>
