<svg width="30" height="30" viewBox="0 0 30 30" fill="none" xmlns="http://www.w3.org/2000/svg">
<path d="M15 11.25C12.9289 11.25 11.25 9.57106 11.25 7.5C11.25 5.42894 12.9289 3.75 15 3.75C17.0711 3.75 18.75 5.42894 18.75 7.5C18.75 9.57106 17.0711 11.25 15 11.25Z" stroke="#283172" stroke-width="1.5"/>
<path d="M6.875 26.25C4.80394 26.25 3.125 24.5711 3.125 22.5C3.125 20.4289 4.80394 18.75 6.875 18.75C8.94606 18.75 10.625 20.4289 10.625 22.5C10.625 24.5711 8.94606 26.25 6.875 26.25Z" stroke="#283172" stroke-width="1.5"/>
<path d="M23.125 26.25C21.0539 26.25 19.375 24.5711 19.375 22.5C19.375 20.4289 21.0539 18.75 23.125 18.75C25.1961 18.75 26.875 20.4289 26.875 22.5C26.875 24.5711 25.1961 26.25 23.125 26.25Z" stroke="#283172" stroke-width="1.5"/>
<path d="M25 16.25C25 13.2632 23.6906 10.5824 21.6145 8.75M5 16.25C5 13.2632 6.3094 10.5824 8.38548 8.75M12.5 25.935C13.299 26.1406 14.1368 26.25 15 26.25C15.8632 26.25 16.701 26.1406 17.5 25.935" stroke="#283172" stroke-width="1.5" stroke-linecap="round"/>
</svg>
