<svg width="30" height="30" viewBox="0 0 30 30" fill="none" xmlns="http://www.w3.org/2000/svg">
<path d="M11.25 15C11.25 16.7259 9.85089 18.125 8.125 18.125C6.39911 18.125 5 16.7259 5 15C5 13.2741 6.39911 11.875 8.125 11.875C9.85089 11.875 11.25 13.2741 11.25 15Z" stroke="#283172" stroke-width="1.5"/>
<path d="M17.5 8.125L11.25 12.5" stroke="#283172" stroke-width="1.5" stroke-linecap="round"/>
<path d="M17.5 21.875L11.25 17.5" stroke="#283172" stroke-width="1.5" stroke-linecap="round"/>
<path d="M23.75 23.125C23.75 24.8509 22.3509 26.25 20.625 26.25C18.8991 26.25 17.5 24.8509 17.5 23.125C17.5 21.3991 18.8991 20 20.625 20C22.3509 20 23.75 21.3991 23.75 23.125Z" stroke="#283172" stroke-width="1.5"/>
<path d="M23.75 6.875C23.75 8.60089 22.3509 10 20.625 10C18.8991 10 17.5 8.60089 17.5 6.875C17.5 5.14911 18.8991 3.75 20.625 3.75C22.3509 3.75 23.75 5.14911 23.75 6.875Z" stroke="#283172" stroke-width="1.5"/>
</svg>
